<svg width="749" height="167" viewBox="0 0 749 167" fill="none" xmlns="http://www.w3.org/2000/svg">
<path d="M101.875 30.6117L160.958 66.3421L102.865 101.052L42.4614 64.6406L101.875 30.6117Z" fill="#44250A"/>
<path d="M160.629 131.663L160.958 66.1608L102.368 99.4058V166.225L160.629 131.663Z" fill="#CC905A"/>
<path d="M42.4614 64.515L102.368 99.0766V166.225L43.1197 132.322L42.4614 64.515Z" fill="#754E2D"/>
<path d="M0 71.7565L42.4614 64.515L102.368 99.0766L60.2359 112.243L0 71.7565Z" fill="#CC905A"/>
<path d="M184 34.5616L160.958 66.49L101.71 30.6117L124.422 0L184 34.5616Z" fill="#95643B"/>
<path d="M102.368 99.7349L101.71 30.6117L42.4614 64.515L86.8978 90.1893L102.368 99.7349Z" fill="#95643B"/>
<path d="M134.426 100.944C138.072 98.7316 141.951 96.9763 143.434 96.3753C144.477 91.8495 143.742 85.6214 143.244 83.073C132.119 84.1739 123.12 91.3875 120.012 94.8567C123.961 97.9408 131.266 100.2 134.426 100.944Z" fill="#393939"/>
<path d="M136.727 101.761C138.755 100.021 142.073 98.7528 143.478 98.3364C158.172 117.743 174.432 119.917 180.725 118.578C182.174 124.781 179.083 129.619 176.419 131.341C157.433 130.965 141.681 111.329 136.727 101.761Z" fill="#393939"/>
<path d="M199.799 101.337C194.593 96.4758 188.659 94.485 186.342 94.0972C183.997 99.8899 180.035 104.329 178.348 105.824C185.102 120.299 181.642 128.234 179.068 130.392L184.515 127.629C191.899 124.055 197.288 113.266 198.704 107.859L199.799 101.337Z" fill="black"/>
<path d="M328.742 126.828H310.051V76.5547C310.051 71.125 310.285 65.1289 310.754 58.5664H310.285C309.309 63.7227 308.43 67.4336 307.648 69.6992L287.961 126.828H272.492L252.453 70.2852C251.906 68.7617 251.027 64.8555 249.816 58.5664H249.289C249.797 66.8477 250.051 74.1133 250.051 80.3633V126.828H233V42.8047H260.715L277.883 92.6094C279.25 96.5938 280.246 100.598 280.871 104.621H281.223C282.277 99.9727 283.391 95.9297 284.562 92.4922L301.73 42.8047H328.742V126.828Z" fill="#393939"/>
<path d="M355.402 57.3359C352.277 57.3359 349.719 56.418 347.727 54.582C345.734 52.707 344.738 50.4219 344.738 47.7266C344.738 44.9531 345.734 42.6875 347.727 40.9297C349.719 39.1719 352.277 38.293 355.402 38.293C358.566 38.293 361.125 39.1719 363.078 40.9297C365.07 42.6875 366.066 44.9531 366.066 47.7266C366.066 50.5391 365.07 52.8438 363.078 54.6406C361.125 56.4375 358.566 57.3359 355.402 57.3359ZM364.543 126.828H346.027V66.8281H364.543V126.828Z" fill="#393939"/>
<path d="M425.598 124.66C421.418 127.082 415.383 128.293 407.492 128.293C398.273 128.293 390.812 125.5 385.109 119.914C379.406 114.328 376.555 107.121 376.555 98.293C376.555 88.0977 379.602 80.0703 385.695 74.2109C391.828 68.3125 400.012 65.3633 410.246 65.3633C417.316 65.3633 422.434 66.3008 425.598 68.1758V83.8789C421.73 80.9883 417.414 79.543 412.648 79.543C407.336 79.543 403.117 81.1055 399.992 84.2305C396.906 87.3164 395.363 91.5938 395.363 97.0625C395.363 102.375 396.848 106.555 399.816 109.602C402.785 112.609 406.867 114.113 412.062 114.113C416.672 114.113 421.184 112.668 425.598 109.777V124.66Z" fill="#393939"/>
<path d="M476.926 83.5273C474.699 82.3164 472.102 81.7109 469.133 81.7109C465.109 81.7109 461.965 83.1953 459.699 86.1641C457.434 89.0938 456.301 93.0977 456.301 98.1758V126.828H437.785V66.8281H456.301V77.9609H456.535C459.465 69.8359 464.738 65.7734 472.355 65.7734C474.309 65.7734 475.832 66.0078 476.926 66.4766V83.5273Z" fill="#393939"/>
<path d="M513.723 128.293C503.723 128.293 495.852 125.5 490.109 119.914C484.406 114.289 481.555 106.672 481.555 97.0625C481.555 87.1406 484.523 79.3867 490.461 73.8008C496.398 68.1758 504.426 65.3633 514.543 65.3633C524.504 65.3633 532.316 68.1758 537.98 73.8008C543.645 79.3867 546.477 86.7891 546.477 96.0078C546.477 105.969 543.547 113.84 537.688 119.621C531.867 125.402 523.879 128.293 513.723 128.293ZM514.191 79.543C509.816 79.543 506.418 81.0469 503.996 84.0547C501.574 87.0625 500.363 91.3203 500.363 96.8281C500.363 108.352 505.012 114.113 514.309 114.113C523.176 114.113 527.609 108.195 527.609 96.3594C527.609 85.1484 523.137 79.543 514.191 79.543Z" fill="#393939"/>
<path d="M595.715 93.4883C595.715 104.738 593.098 113.352 587.863 119.328C582.668 125.305 575.129 128.293 565.246 128.293C560.832 128.293 556.75 127.531 553 126.008V108.254C556.242 110.715 559.875 111.945 563.898 111.945C572.531 111.945 576.848 105.539 576.848 92.7266V42.8047H595.715V93.4883Z" fill="#393939"/>
<path d="M640.891 128.293C630.891 128.293 623.02 125.5 617.277 119.914C611.574 114.289 608.723 106.672 608.723 97.0625C608.723 87.1406 611.691 79.3867 617.629 73.8008C623.566 68.1758 631.594 65.3633 641.711 65.3633C651.672 65.3633 659.484 68.1758 665.148 73.8008C670.812 79.3867 673.645 86.7891 673.645 96.0078C673.645 105.969 670.715 113.84 664.855 119.621C659.035 125.402 651.047 128.293 640.891 128.293ZM641.359 79.543C636.984 79.543 633.586 81.0469 631.164 84.0547C628.742 87.0625 627.531 91.3203 627.531 96.8281C627.531 108.352 632.18 114.113 641.477 114.113C650.344 114.113 654.777 108.195 654.777 96.3594C654.777 85.1484 650.305 79.543 641.359 79.543Z" fill="#393939"/>
<path d="M704.406 119.855H704.172V126.828H685.656V38H704.172V75.8516H704.406C708.977 68.8594 715.48 65.3633 723.918 65.3633C731.652 65.3633 737.609 68.0195 741.789 73.332C745.969 78.6445 748.059 85.9102 748.059 95.1289C748.059 105.129 745.617 113.156 740.734 119.211C735.852 125.266 729.328 128.293 721.164 128.293C713.781 128.293 708.195 125.48 704.406 119.855ZM703.879 94.543V100.695C703.879 104.562 704.992 107.766 707.219 110.305C709.445 112.844 712.297 114.113 715.773 114.113C719.992 114.113 723.254 112.492 725.559 109.25C727.902 105.969 729.074 101.34 729.074 95.3633C729.074 90.4023 728 86.5352 725.852 83.7617C723.742 80.9492 720.715 79.543 716.77 79.543C713.059 79.543 709.973 80.9297 707.512 83.7031C705.09 86.4766 703.879 90.0898 703.879 94.543Z" fill="#393939"/>
</svg>
