<svg width="277" height="62" viewBox="0 0 277 62" fill="none" xmlns="http://www.w3.org/2000/svg">
<path d="M37.7235 11.335L59.6016 24.5656L38.0902 37.4183L15.7231 23.9356L37.7235 11.335Z" fill="#44250A"/>
<path d="M59.4798 48.7541L59.6017 24.499L37.9062 36.8094V61.5519L59.4798 48.7541Z" fill="#CC905A"/>
<path d="M15.7231 23.8896L37.9061 36.6875V61.552L15.9669 48.9979L15.7231 23.8896Z" fill="#754E2D"/>
<path d="M0 26.5711L15.7231 23.8896L37.9061 36.6875L22.3049 41.5629L0 26.5711Z" fill="#CC905A"/>
<path d="M68.1333 12.7979L59.6013 24.6207L37.6621 11.3353L46.0721 0L68.1333 12.7979Z" fill="#95643B"/>
<path d="M37.9061 36.9307L37.6624 11.335L15.7231 23.8891L32.1776 33.3961L37.9061 36.9307Z" fill="#95643B"/>
<path d="M49.7767 37.3787C51.1269 36.5593 52.5631 35.9094 53.1124 35.6868C53.4985 34.011 53.2264 31.7047 53.0421 30.7611C48.9225 31.1687 45.5905 33.8399 44.4394 35.1245C45.9015 36.2665 48.6068 37.1032 49.7767 37.3787Z" fill="#393939"/>
<path d="M50.6291 37.6807C51.3799 37.0364 52.6086 36.5669 53.129 36.4127C58.57 43.599 64.5909 44.4039 66.9213 43.9081C67.4576 46.2049 66.313 47.9966 65.3267 48.634C58.2964 48.4948 52.4636 41.2238 50.6291 37.6807Z" fill="#393939"/>
<path d="M73.9839 37.5243C72.0565 35.7243 69.8589 34.9871 69.0011 34.8435C68.1326 36.9885 66.6657 38.6321 66.0407 39.1858C68.542 44.5458 67.2607 47.4841 66.3074 48.2833L68.3246 47.2602C71.0589 45.9365 73.0542 41.9415 73.5785 39.9395L73.9839 37.5243Z" fill="black"/>
<path d="M121.73 46.9636H114.809V28.3478C114.809 26.3372 114.896 24.1169 115.069 21.6869H114.896C114.534 23.5962 114.209 24.9703 113.92 25.8093L106.629 46.9636H100.901L93.4812 26.0262C93.2787 25.4621 92.9532 24.0156 92.5048 21.6869H92.3095C92.4976 24.7533 92.5916 27.4437 92.5916 29.7581V46.9636H86.2778V15.8504H96.5404L102.898 34.2927C103.404 35.7681 103.773 37.2507 104.004 38.7405H104.134C104.525 37.0193 104.937 35.5222 105.371 34.2493L111.728 15.8504H121.73V46.9636Z" fill="white"/>
<path d="M131.602 21.2312C130.445 21.2312 129.498 20.8913 128.76 20.2115C128.022 19.5172 127.654 18.671 127.654 17.673C127.654 16.646 128.022 15.807 128.76 15.1561C129.498 14.5052 130.445 14.1798 131.602 14.1798C132.774 14.1798 133.721 14.5052 134.445 15.1561C135.182 15.807 135.551 16.646 135.551 17.673C135.551 18.7144 135.182 19.5678 134.445 20.2332C133.721 20.8985 132.774 21.2312 131.602 21.2312ZM134.987 46.9636H128.131V24.7461H134.987V46.9636Z" fill="white"/>
<path d="M157.595 46.1608C156.047 47.0576 153.813 47.506 150.891 47.506C147.477 47.506 144.715 46.4718 142.603 44.4034C140.491 42.335 139.435 39.6663 139.435 36.3973C139.435 32.622 140.563 29.6496 142.82 27.4799C145.091 25.2958 148.121 24.2037 151.911 24.2037C154.529 24.2037 156.424 24.5508 157.595 25.2451V31.0599C156.163 29.9895 154.565 29.4543 152.8 29.4543C150.833 29.4543 149.271 30.0329 148.114 31.1901C146.971 32.3328 146.4 33.9166 146.4 35.9417C146.4 37.9088 146.949 39.4565 148.049 40.5848C149.148 41.6985 150.659 42.2554 152.583 42.2554C154.29 42.2554 155.961 41.7202 157.595 40.6499V46.1608Z" fill="white"/>
<path d="M176.602 30.9297C175.777 30.4813 174.815 30.2571 173.716 30.2571C172.226 30.2571 171.062 30.8067 170.223 31.906C169.384 32.9909 168.964 34.4735 168.964 36.3539V46.9636H162.108V24.7461H168.964V28.8685H169.051C170.136 25.8599 172.089 24.3556 174.909 24.3556C175.632 24.3556 176.197 24.4424 176.602 24.6159V30.9297Z" fill="white"/>
<path d="M190.227 47.506C186.524 47.506 183.61 46.4718 181.483 44.4034C179.372 42.3205 178.316 39.4999 178.316 35.9417C178.316 32.2677 179.415 29.3965 181.614 27.328C183.812 25.2451 186.785 24.2037 190.531 24.2037C194.219 24.2037 197.112 25.2451 199.21 27.328C201.307 29.3965 202.356 32.1375 202.356 35.5511C202.356 39.2396 201.271 42.1542 199.101 44.2949C196.946 46.4357 193.988 47.506 190.227 47.506ZM190.401 29.4543C188.781 29.4543 187.522 30.0112 186.625 31.125C185.729 32.2387 185.28 33.8154 185.28 35.8549C185.28 40.1219 187.002 42.2554 190.444 42.2554C193.728 42.2554 195.369 40.064 195.369 35.6813C195.369 31.53 193.713 29.4543 190.401 29.4543Z" fill="white"/>
<path d="M220.588 34.6181C220.588 38.7839 219.619 41.9734 217.681 44.1864C215.757 46.3995 212.965 47.506 209.306 47.506C207.671 47.506 206.16 47.224 204.771 46.6599V40.0857C205.972 40.997 207.317 41.4526 208.807 41.4526C212.003 41.4526 213.602 39.0805 213.602 34.3361V15.8504H220.588V34.6181Z" fill="white"/>
<path d="M237.316 47.506C233.613 47.506 230.699 46.4718 228.573 44.4034C226.461 42.3205 225.405 39.4999 225.405 35.9417C225.405 32.2677 226.504 29.3965 228.703 27.328C230.901 25.2451 233.874 24.2037 237.62 24.2037C241.309 24.2037 244.202 25.2451 246.299 27.328C248.396 29.3965 249.445 32.1375 249.445 35.5511C249.445 39.2396 248.36 42.1542 246.19 44.2949C244.035 46.4357 241.077 47.506 237.316 47.506ZM237.49 29.4543C235.87 29.4543 234.612 30.0112 233.715 31.125C232.818 32.2387 232.37 33.8154 232.37 35.8549C232.37 40.1219 234.091 42.2554 237.533 42.2554C240.817 42.2554 242.459 40.064 242.459 35.6813C242.459 31.53 240.802 29.4543 237.49 29.4543Z" fill="white"/>
<path d="M260.836 44.3817H260.749V46.9636H253.893V14.0713H260.749V28.0874H260.836C262.528 25.4983 264.936 24.2037 268.061 24.2037C270.925 24.2037 273.131 25.1873 274.678 27.1545C276.226 29.1216 277 31.812 277 35.2257C277 38.9286 276.096 41.901 274.288 44.143C272.48 46.385 270.064 47.506 267.041 47.506C264.307 47.506 262.239 46.4646 260.836 44.3817ZM260.64 35.0087V37.2869C260.64 38.7188 261.053 39.9049 261.877 40.8451C262.702 41.7853 263.758 42.2554 265.045 42.2554C266.607 42.2554 267.815 41.6551 268.668 40.4546C269.536 39.2396 269.97 37.5255 269.97 35.3124C269.97 33.4754 269.572 32.0435 268.777 31.0165C267.996 29.975 266.875 29.4543 265.414 29.4543C264.04 29.4543 262.897 29.9678 261.986 30.9948C261.089 32.0218 260.64 33.3597 260.64 35.0087Z" fill="white"/>
</svg>
