<svg width="229" height="230" viewBox="0 0 229 230" fill="none" xmlns="http://www.w3.org/2000/svg">
<path d="M112.874 30.6117L171.958 66.3421L113.865 101.052L53.4609 64.6406L112.874 30.6117Z" fill="#44250A"/>
<path d="M171.629 131.663L171.958 66.1608L113.368 99.0824V166.225L171.629 131.663Z" fill="#CC905A"/>
<path d="M113.368 99.7349L112.709 30.6117L53.4609 64.515L97.8973 90.1894L113.368 99.7349Z" fill="#95643B"/>
<path d="M145.426 100.944C149.072 98.7316 152.951 96.9763 154.434 96.3753C155.477 91.8495 154.742 85.6214 154.244 83.073C143.119 84.1739 134.12 91.3875 131.012 94.8567C134.961 97.9408 142.266 100.2 145.426 100.944Z" fill="#393939"/>
<path d="M147.727 101.761C149.755 100.021 153.073 98.7528 154.478 98.3364C169.172 117.743 185.432 119.917 191.725 118.578C193.174 124.781 190.083 129.619 187.419 131.341C168.433 130.965 152.681 111.329 147.727 101.761Z" fill="#393939"/>
<path d="M210.799 101.337C205.594 96.4758 199.659 94.485 197.343 94.0972C194.997 99.8899 191.036 104.329 189.348 105.824C196.103 120.299 192.643 128.234 190.068 130.392L195.516 127.629C202.9 124.055 208.288 113.266 209.704 107.859L210.799 101.337Z" fill="black"/>
<path d="M53.4609 64.515L113.368 99.0766V166.225L54.1193 132.322L53.4609 64.515Z" fill="#754E2D"/>
<path d="M11 71.7565L53.4614 64.515L113.368 99.0766L71.2359 112.243L11 71.7565Z" fill="#CC905A"/>
<path d="M195 34.5616L171.958 66.49L112.71 30.6117L135.422 0L195 34.5616Z" fill="#95643B"/>
<path d="M42.5679 229.351H34.2575V207.08C34.2575 204.674 34.3617 202.018 34.5701 199.111H34.3617C33.9275 201.395 33.5368 203.039 33.1894 204.043L24.4362 229.351H17.5586L8.64905 204.302C8.4059 203.628 8.01513 201.897 7.47674 199.111H7.24227C7.46805 202.78 7.58094 205.998 7.58094 208.767V229.351H0V192.128H12.3223L19.9553 214.192C20.5632 215.957 21.0061 217.731 21.2839 219.513H21.4403C21.9092 217.454 22.4042 215.663 22.9252 214.14L30.5582 192.128H42.5679V229.351Z" fill="#393939"/>
<path d="M54.4213 198.566C53.0319 198.566 51.8943 198.159 51.0085 197.346C50.1228 196.515 49.6799 195.503 49.6799 194.309C49.6799 193.08 50.1228 192.077 51.0085 191.298C51.8943 190.519 53.0319 190.13 54.4213 190.13C55.828 190.13 56.9656 190.519 57.834 191.298C58.7197 192.077 59.1626 193.08 59.1626 194.309C59.1626 195.555 58.7197 196.576 57.834 197.372C56.9656 198.168 55.828 198.566 54.4213 198.566ZM58.4853 229.351H50.253V202.771H58.4853V229.351Z" fill="#393939"/>
<path d="M85.6308 228.391C83.7724 229.464 81.0891 230 77.5809 230C73.4822 230 70.165 228.763 67.6293 226.288C65.0936 223.814 63.8258 220.621 63.8258 216.71C63.8258 212.193 65.1805 208.637 67.8898 206.042C70.6165 203.429 74.255 202.122 78.8053 202.122C81.9488 202.122 84.224 202.537 85.6308 203.368V210.324C83.9114 209.044 81.9923 208.404 79.8734 208.404C77.5114 208.404 75.6357 209.096 74.2463 210.48C72.8743 211.847 72.1883 213.742 72.1883 216.165C72.1883 218.518 72.8482 220.37 74.1682 221.72C75.4881 223.052 77.303 223.718 79.6129 223.718C81.6623 223.718 83.6682 223.078 85.6308 221.798V228.391Z" fill="#393939"/>
<path d="M108.452 210.169C107.462 209.632 106.307 209.364 104.987 209.364C103.198 209.364 101.8 210.022 100.793 211.337C99.7853 212.635 99.2817 214.408 99.2817 216.658V229.351H91.0494V202.771H99.2817V207.703H99.3859C100.688 204.103 103.033 202.304 106.42 202.304C107.288 202.304 107.965 202.408 108.452 202.615V210.169Z" fill="#393939"/>
<path d="M124.812 230C120.366 230 116.866 228.763 114.313 226.288C111.778 223.796 110.51 220.422 110.51 216.165C110.51 211.769 111.83 208.334 114.47 205.86C117.109 203.368 120.679 202.122 125.177 202.122C129.605 202.122 133.079 203.368 135.597 205.86C138.116 208.334 139.375 211.614 139.375 215.698C139.375 220.11 138.072 223.597 135.467 226.158C132.879 228.719 129.328 230 124.812 230ZM125.02 208.404C123.075 208.404 121.564 209.07 120.487 210.402C119.411 211.735 118.872 213.621 118.872 216.061C118.872 221.166 120.939 223.718 125.073 223.718C129.015 223.718 130.986 221.097 130.986 215.853C130.986 210.887 128.998 208.404 125.02 208.404Z" fill="#393939"/>
<path d="M161.267 214.581C161.267 219.565 160.103 223.381 157.776 226.029C155.466 228.676 152.114 230 147.72 230C145.757 230 143.942 229.663 142.275 228.988V221.123C143.717 222.213 145.332 222.758 147.121 222.758C150.959 222.758 152.878 219.92 152.878 214.244V192.128H161.267V214.581Z" fill="#393939"/>
<path d="M181.352 230C176.906 230 173.406 228.763 170.853 226.288C168.318 223.796 167.05 220.422 167.05 216.165C167.05 211.769 168.37 208.334 171.01 205.86C173.65 203.368 177.219 202.122 181.717 202.122C186.146 202.122 189.619 203.368 192.137 205.86C194.656 208.334 195.915 211.614 195.915 215.698C195.915 220.11 194.612 223.597 192.007 226.158C189.419 228.719 185.868 230 181.352 230ZM181.561 208.404C179.615 208.404 178.104 209.07 177.028 210.402C175.951 211.735 175.412 213.621 175.412 216.061C175.412 221.166 177.479 223.718 181.613 223.718C185.555 223.718 187.526 221.097 187.526 215.853C187.526 210.887 185.538 208.404 181.561 208.404Z" fill="#393939"/>
<path d="M209.592 226.262H209.488V229.351H201.255V190H209.488V206.768H209.592C211.624 203.671 214.515 202.122 218.267 202.122C221.706 202.122 224.354 203.299 226.213 205.652C228.071 208.006 229 211.224 229 215.308C229 219.738 227.915 223.294 225.744 225.977C223.573 228.659 220.672 230 217.042 230C213.76 230 211.276 228.754 209.592 226.262ZM209.357 215.049V217.774C209.357 219.487 209.852 220.906 210.842 222.031C211.832 223.156 213.1 223.718 214.646 223.718C216.521 223.718 217.972 223 218.996 221.564C220.038 220.11 220.559 218.06 220.559 215.412C220.559 213.214 220.082 211.501 219.127 210.273C218.189 209.027 216.843 208.404 215.089 208.404C213.439 208.404 212.067 209.018 210.972 210.247C209.896 211.475 209.357 213.076 209.357 215.049Z" fill="#393939"/>
</svg>
